HIERARCHY
ROOT Hips
{
	OFFSET 0.000000 97.167313 0.000000
	CHANNELS 6 Xposition Yposition Zposition Xrotation Yrotation Zrotation
	JOINT Spine
	{
		OFFSET 0.000000 13.784798 0.064400
		CHANNELS 3 Xrotation Yrotation Zrotation
		JOINT Spine1
		{
			OFFSET 0.000000 12.037903 0.404700
			CHANNELS 3 Xrotation Yrotation Zrotation
			JOINT Spine2
			{
				OFFSET 0.000000 17.795601 0.420200
				CHANNELS 3 Xrotation Yrotation Zrotation
				JOINT Neck
				{
					OFFSET 0.000000 39.131302 11.954600
					CHANNELS 3 Xrotation Yrotation Zrotation
					JOINT Head
					{
						OFFSET 0.000000 14.456192 15.627699
						CHANNELS 3 Xrotation Yrotation Zrotation
						JOINT HeadTop_End
						{
							OFFSET 0.000000 15.703506 7.603401
							CHANNELS 3 Xrotation Yrotation Zrotation
							End Site
							{
								OFFSET 0.000000 17.447403 0.000000
							}
						}
					}
				}
				JOINT LeftShoulder
				{
					OFFSET 17.399500 24.608795 1.168800
					CHANNELS 3 Xrotation Yrotation Zrotation
					JOINT LeftArm
					{
						OFFSET 18.980635 5.765305 1.818600
						CHANNELS 3 Xrotation Yrotation Zrotation
						JOINT LeftForeArm
						{
							OFFSET 49.290169 0.000000 0.000000
							CHANNELS 3 Xrotation Yrotation Zrotation
							JOINT LeftHand
							{
								OFFSET 31.562012 0.000000 0.000000
								CHANNELS 3 Xrotation Yrotation Zrotation
								JOINT LeftHandThumb1
								{
									OFFSET 6.133995 -4.388519 7.076070
									CHANNELS 3 Xrotation Yrotation Zrotation
									JOINT LeftHandThumb2
									{
										OFFSET 6.037666 -3.485840 3.485847
										CHANNELS 3 Xrotation Yrotation Zrotation
										JOINT LeftHandThumb3
										{
											OFFSET 6.496506 -3.750763 3.750761
											CHANNELS 3 Xrotation Yrotation Zrotation
											JOINT LeftHandThumb4
											{
												OFFSET 5.616882 -3.242905 3.242910
												CHANNELS 3 Xrotation Yrotation Zrotation
												End Site
												{
													OFFSET -1.254608 7.132141 0.375429
												}
											}
										}
									}
								}
								JOINT LeftHandPinky1
								{
									OFFSET 18.920792 -0.453171 -11.426712
									CHANNELS 3 Xrotation Yrotation Zrotation
									JOINT LeftHandPinky2
									{
										OFFSET 4.919586 0.000000 0.000000
										CHANNELS 3 Xrotation Yrotation Zrotation
										JOINT LeftHandPinky3
										{
											OFFSET 5.233047 0.000000 0.000000
											CHANNELS 3 Xrotation Yrotation Zrotation
											JOINT LeftHandPinky4
											{
												OFFSET 5.571716 0.000000 0.000000
												CHANNELS 3 Xrotation Yrotation Zrotation
												End Site
												{
													OFFSET -3.459808 4.342407 -0.466164
												}
											}
										}
									}
								}
								JOINT LeftHandRing1
								{
									OFFSET 22.726120 -0.094986 -6.500475
									CHANNELS 3 Xrotation Yrotation Zrotation
									JOINT LeftHandRing2
									{
										OFFSET 6.408615 0.000000 0.000000
										CHANNELS 3 Xrotation Yrotation Zrotation
										JOINT LeftHandRing3
										{
											OFFSET 6.150223 0.000000 0.000000
											CHANNELS 3 Xrotation Yrotation Zrotation
											JOINT LeftHandRing4
											{
												OFFSET 6.145386 0.000000 0.000000
												CHANNELS 3 Xrotation Yrotation Zrotation
												End Site
												{
													OFFSET -3.671402 4.923981 -0.202372
												}
											}
										}
									}
								}
								JOINT LeftHandMiddle1
								{
									OFFSET 23.373947 0.000000 0.000001
									CHANNELS 3 Xrotation Yrotation Zrotation
									JOINT LeftHandMiddle2
									{
										OFFSET 6.996567 0.000000 0.000000
										CHANNELS 3 Xrotation Yrotation Zrotation
										JOINT LeftHandMiddle3
										{
											OFFSET 7.015945 0.000000 0.000000
											CHANNELS 3 Xrotation Yrotation Zrotation
											JOINT LeftHandMiddle4
											{
												OFFSET 7.721573 0.000000 0.000000
												CHANNELS 3 Xrotation Yrotation Zrotation
												End Site
												{
													OFFSET -4.651108 6.158463 0.251582
												}
											}
										}
									}
								}
								JOINT LeftHandIndex1
								{
									OFFSET 21.310577 -0.490082 6.209344
									CHANNELS 3 Xrotation Yrotation Zrotation
									JOINT LeftHandIndex2
									{
										OFFSET 7.536453 0.000000 0.000000
										CHANNELS 3 Xrotation Yrotation Zrotation
										JOINT LeftHandIndex3
										{
											OFFSET 7.512344 0.000000 0.000000
											CHANNELS 3 Xrotation Yrotation Zrotation
											JOINT LeftHandIndex4
											{
												OFFSET 10.212402 0.000000 0.000001
												CHANNELS 3 Xrotation Yrotation Zrotation
												End Site
												{
													OFFSET -5.180801 8.690506 1.388433
												}
											}
										}
									}
								}
							}
						}
					}
				}
				JOINT RightShoulder
				{
					OFFSET -17.399500 24.608795 1.168800
					CHANNELS 3 Xrotation Yrotation Zrotation
					JOINT RightArm
					{
						OFFSET -18.980635 5.765305 1.818600
						CHANNELS 3 Xrotation Yrotation Zrotation
						JOINT RightForeArm
						{
							OFFSET -49.290169 0.000000 0.000000
							CHANNELS 3 Xrotation Yrotation Zrotation
							JOINT RightHand
							{
								OFFSET -31.562012 0.000000 0.000000
								CHANNELS 3 Xrotation Yrotation Zrotation
								JOINT RightHandThumb1
								{
									OFFSET -6.133995 -4.388519 7.076070
									CHANNELS 3 Xrotation Yrotation Zrotation
									JOINT RightHandThumb2
									{
										OFFSET -6.037666 -3.485840 3.485847
										CHANNELS 3 Xrotation Yrotation Zrotation
										JOINT RightHandThumb3
										{
											OFFSET -6.496506 -3.750763 3.750761
											CHANNELS 3 Xrotation Yrotation Zrotation
											JOINT RightHandThumb4
											{
												OFFSET -5.616882 -3.242905 3.242910
												CHANNELS 3 Xrotation Yrotation Zrotation
												End Site
												{
													OFFSET 1.254608 7.132141 0.375429
												}
											}
										}
									}
								}
								JOINT RightHandIndex1
								{
									OFFSET -21.310577 -0.490082 6.209344
									CHANNELS 3 Xrotation Yrotation Zrotation
									JOINT RightHandIndex2
									{
										OFFSET -7.536453 0.000000 0.000000
										CHANNELS 3 Xrotation Yrotation Zrotation
										JOINT RightHandIndex3
										{
											OFFSET -7.512344 0.000000 0.000000
											CHANNELS 3 Xrotation Yrotation Zrotation
											JOINT RightHandIndex4
											{
												OFFSET -10.212402 0.000000 0.000001
												CHANNELS 3 Xrotation Yrotation Zrotation
												End Site
												{
													OFFSET 5.180801 8.690506 1.388433
												}
											}
										}
									}
								}
								JOINT RightHandMiddle1
								{
									OFFSET -23.373947 0.000000 0.000001
									CHANNELS 3 Xrotation Yrotation Zrotation
									JOINT RightHandMiddle2
									{
										OFFSET -6.996567 0.000000 0.000000
										CHANNELS 3 Xrotation Yrotation Zrotation
										JOINT RightHandMiddle3
										{
											OFFSET -7.015945 0.000000 0.000000
											CHANNELS 3 Xrotation Yrotation Zrotation
											JOINT RightHandMiddle4
											{
												OFFSET -7.721573 0.000000 0.000000
												CHANNELS 3 Xrotation Yrotation Zrotation
												End Site
												{
													OFFSET 4.651108 6.158463 0.251582
												}
											}
										}
									}
								}
								JOINT RightHandRing1
								{
									OFFSET -22.726120 -0.094986 -6.500475
									CHANNELS 3 Xrotation Yrotation Zrotation
									JOINT RightHandRing2
									{
										OFFSET -6.408615 0.000000 0.000000
										CHANNELS 3 Xrotation Yrotation Zrotation
										JOINT RightHandRing3
										{
											OFFSET -6.150223 0.000000 0.000000
											CHANNELS 3 Xrotation Yrotation Zrotation
											JOINT RightHandRing4
											{
												OFFSET -6.145386 0.000000 0.000000
												CHANNELS 3 Xrotation Yrotation Zrotation
												End Site
												{
													OFFSET 3.671402 4.923981 -0.202372
												}
											}
										}
									}
								}
								JOINT RightHandPinky1
								{
									OFFSET -18.920792 -0.453171 -11.426712
									CHANNELS 3 Xrotation Yrotation Zrotation
									JOINT RightHandPinky2
									{
										OFFSET -4.919586 0.000000 0.000000
										CHANNELS 3 Xrotation Yrotation Zrotation
										JOINT RightHandPinky3
										{
											OFFSET -5.233047 0.000000 0.000000
											CHANNELS 3 Xrotation Yrotation Zrotation
											JOINT RightHandPinky4
											{
												OFFSET -5.571716 0.000000 0.000000
												CHANNELS 3 Xrotation Yrotation Zrotation
												End Site
												{
													OFFSET 3.459808 4.342407 -0.466164
												}
											}
										}
									}
								}
							}
						}
					}
				}
			}
		}
	}
	JOINT LeftUpLeg
	{
		OFFSET 19.899099 -7.885101 -3.429500
		CHANNELS 3 Xrotation Yrotation Zrotation
		JOINT LeftLeg
		{
			OFFSET 1.745560 -36.997807 10.304700
			CHANNELS 3 Xrotation Yrotation Zrotation
			JOINT LeftFoot
			{
				OFFSET -1.745558 -29.803308 -13.615400
				CHANNELS 3 Xrotation Yrotation Zrotation
				JOINT LeftToeBase
				{
					OFFSET 1.181900 -18.539904 15.226099
					CHANNELS 3 Xrotation Yrotation Zrotation
					JOINT LeftToe_End
					{
						OFFSET -0.863701 1.402801 16.534700
						CHANNELS 3 Xrotation Yrotation Zrotation
						End Site
						{
							OFFSET 0.000000 16.616566 0.000000
						}
					}
				}
			}
		}
	}
	JOINT RightUpLeg
	{
		OFFSET -19.899099 -7.885101 -3.429500
		CHANNELS 3 Xrotation Yrotation Zrotation
		JOINT RightLeg
		{
			OFFSET -1.745560 -36.997807 10.304700
			CHANNELS 3 Xrotation Yrotation Zrotation
			JOINT RightFoot
			{
				OFFSET 1.745558 -29.803308 -13.615400
				CHANNELS 3 Xrotation Yrotation Zrotation
				JOINT RightToeBase
				{
					OFFSET -1.181900 -18.539904 15.226099
					CHANNELS 3 Xrotation Yrotation Zrotation
					JOINT RightToe_End
					{
						OFFSET 0.863701 1.402801 16.534700
						CHANNELS 3 Xrotation Yrotation Zrotation
						End Site
						{
							OFFSET 0.000000 16.616566 0.000000
						}
					}
				}
			}
		}
	}
}
MOTION
Frames: 6
Frame Time: 0.033333
3.991875 76.665276 0.808102 18.484616 -10.351437 -1.513751 6.250450 3.691810 3.153692 12.477722 6.820917 4.488096 12.477725 6.820912 4.488102 -0.902185 0.323329 -5.475985 -31.480772 0.045645 -10.983464 -0.000001 0.000000 -0.000000 5.025553 6.335399 2.102151 48.432656 1.938791 -64.475551 2.951326 -112.185140 2.568358 6.834872 -10.071718 17.953692 0.020309 -0.119788 8.442272 19.501619 23.228111 -9.678475 0.000001 0.000007 -0.000001 0.000000 0.000003 0.000001 9.176149 16.577945 -72.960907 0.644002 -9.525065 -88.909030 0.000005 -0.000007 0.000002 0.000001 -0.000001 -0.000004 2.572014 4.838436 -75.516095 -1.299646 -5.940016 -79.427375 0.000002 -0.000003 -0.000002 -0.000001 0.000001 0.000002 -3.849231 0.620800 -63.245967 -8.009096 -2.592432 -81.449487 -0.000002 0.000001 0.000007 0.000002 -0.000002 0.000006 -6.126374 -5.279510 -40.837052 -8.287286 -1.389931 -85.488021 -0.000000 -0.000001 -0.000003 -0.000002 0.000003 -0.000003 -0.226236 13.923051 1.315906 -57.690168 29.469818 67.361703 -0.610757 107.824467 -0.200118 21.480310 15.872352 2.915054 2.072286 -3.030428 -4.517013 9.275385 -13.777284 -8.488615 0.000016 -0.000012 -0.000016 -0.000001 -0.000004 -0.000001 -1.967614 -3.668628 55.847267 -7.523858 -0.019666 89.083200 0.000004 0.000002 -0.000006 -0.000002 -0.000003 0.000003 -2.146354 -3.434817 64.871340 -6.327824 1.742213 74.238528 0.000004 -0.000009 0.000002 0.000001 0.000002 -0.000008 5.236253 -4.270805 79.321077 -2.296672 7.244798 77.945272 0.000004 -0.000005 0.000010 -0.000001 0.000006 -0.000006 9.979428 -16.844450 66.852765 -2.248973 12.502168 86.120407 0.000011 -0.000008 0.000006 0.000000 -0.000002 -0.000001 -59.832771 26.790191 -6.535026 120.732924 14.517343 13.704708 -44.673501 9.124594 10.011175 -3.594860 0.002929 0.000182 -0.000004 0.000000 0.000000 -15.546569 -3.391656 7.583463 46.128430 -6.772884 -3.608164 -37.564610 -4.407895 5.678030 -15.162567 -0.000008 -0.000009 0.000000 -0.000002 -0.000000 
2.433387 77.264908 28.526062 19.638851 -2.756665 -3.083477 4.546584 4.043565 2.648031 9.146095 3.761268 3.202342 9.146089 3.761264 3.202340 1.939253 -0.134136 -3.489844 -26.491777 -3.869285 -6.285102 0.000001 -0.000000 -0.000000 4.364864 4.472667 5.305282 50.088967 4.612825 -73.019210 1.764608 -118.311075 1.849670 15.018285 -9.613841 21.002330 0.020310 -0.119786 8.442267 17.610097 20.334231 -7.199890 -0.000003 0.000006 -0.000005 0.000001 -0.000002 -0.000004 8.644215 18.849428 -68.230557 0.654223 -9.492860 -88.406301 0.000004 -0.000004 -0.000001 0.000002 0.000000 -0.000002 4.719780 8.544689 -63.018850 -1.320425 -5.949252 -79.827556 -0.000001 -0.000008 -0.000002 -0.000001 0.000001 0.000005 0.602191 5.000820 -53.867288 -8.177263 -2.529878 -82.898300 -0.000004 0.000004 0.000007 0.000001 -0.000002 0.000001 -2.534368 -2.944732 -34.672212 -8.338566 -1.371690 -85.906807 -0.000000 0.000000 0.000002 -0.000000 0.000003 -0.000003 -0.632987 12.150676 6.367726 -27.120342 28.460107 54.110644 12.274022 91.995121 -13.309227 17.706126 23.362821 0.191489 2.092348 -0.815122 -6.165955 12.292785 -18.522906 -6.214106 0.000017 -0.000014 -0.000015 -0.000000 0.000001 0.000002 1.898713 -0.466172 40.583901 -7.556734 -0.027582 89.382704 0.000002 0.000001 -0.000007 -0.000001 -0.000003 -0.000001 -2.401991 -3.001741 45.637063 -6.307617 1.754994 74.057064 0.000005 -0.000007 -0.000004 -0.000001 0.000002 -0.000004 4.884410 -5.491076 70.136467 -2.124414 7.116083 75.652514 0.000003 -0.000003 0.000013 -0.000001 0.000001 -0.000003 5.001884 -21.540397 49.950092 -1.985917 12.240207 82.391062 0.000009 -0.000006 0.000001 0.000001 0.000001 -0.000001 -100.917049 -0.245786 1.135099 103.874808 8.925217 0.741756 11.340017 -12.385703 4.918690 -3.594895 -0.034655 0.597496 -0.000001 -0.000000 0.000000 14.880392 -7.831106 9.232300 16.232699 -3.154812 -3.898755 -24.403101 -0.876581 6.853143 -28.069088 0.348312 -3.555753 -0.000000 -0.000001 -0.000000 
0.722113 81.116394 52.195755 20.084625 1.614883 -3.076963 3.910319 3.863952 1.558781 7.916778 3.068089 0.811498 7.916766 3.068085 0.811500 3.565287 -0.557888 -2.273100 -24.339377 -9.505678 -1.575253 -0.000001 -0.000000 -0.000000 4.626981 1.725225 1.742345 36.072534 -2.677571 -71.742436 0.201974 -115.144982 0.730046 21.934721 -8.552124 15.465112 0.020311 -0.119787 8.442269 19.367375 23.039727 -9.508146 0.000001 0.000005 -0.000000 0.000000 -0.000002 -0.000003 7.483713 26.995570 -59.814221 0.595640 -9.668129 -91.160137 0.000007 -0.000001 0.000005 -0.000002 -0.000002 -0.000004 5.985506 18.410544 -42.083435 -1.321242 -5.942943 -79.862533 -0.000001 -0.000005 -0.000007 -0.000001 -0.000001 0.000005 1.057479 13.179720 -22.605332 -8.507439 -2.392689 -85.784212 -0.000005 0.000002 0.000007 0.000001 -0.000002 0.000006 2.533746 3.159573 -18.061064 -7.901918 -1.517944 -82.446735 0.000003 0.000001 0.000006 -0.000003 0.000001 -0.000001 -0.459872 9.391789 10.854695 -5.214898 24.697406 52.535862 -3.779971 78.190564 1.088344 16.152791 29.043317 -5.864236 -25.061395 5.552870 -21.366742 24.583149 -38.291164 8.750404 0.000018 -0.000019 -0.000013 -0.000000 -0.000001 0.000002 -0.329898 -9.262231 24.001695 -6.987221 0.243189 83.870099 -0.000001 0.000003 -0.000007 0.000000 0.000000 -0.000001 -0.250449 -9.447408 27.088694 -6.194732 1.789044 72.946092 0.000003 -0.000008 0.000003 0.000001 -0.000000 -0.000001 6.714809 -11.034681 54.324244 -2.160081 7.143772 76.136713 0.000002 -0.000005 0.000015 0.000000 -0.000000 -0.000005 -7.227847 -22.472984 26.859391 -1.851144 12.091918 80.379531 0.000009 -0.000008 -0.000002 -0.000000 -0.000002 0.000002 -96.237468 4.237766 -3.828070 78.826988 4.687750 1.353905 15.196544 -9.370261 7.841941 -3.887398 -0.065211 1.109704 -0.000001 0.000000 -0.000000 20.616960 -6.290506 14.324008 4.036596 1.091876 -9.232549 14.511191 4.682301 2.849502 -50.874756 3.904014 -4.657409 -0.000001 0.000000 -0.000000 
0.229415 81.880165 69.055771 19.421001 2.588216 -0.885091 4.588662 3.671521 -0.942220 9.180815 3.702525 -1.502003 9.180846 3.702527 -1.502005 3.313915 -0.804500 -1.745125 -25.377506 -14.258019 2.705160 -0.000001 -0.000000 -0.000000 4.590346 -1.743740 -4.990172 20.728816 -14.824548 -62.047283 -1.880709 -98.898175 -1.454869 17.873451 -10.954877 14.456633 0.020311 -0.119784 8.442264 19.434677 23.132299 -9.593018 0.000001 0.000006 -0.000001 0.000002 -0.000000 0.000001 5.965016 30.973696 -55.688192 0.529529 -9.838390 -93.882528 0.000006 -0.000007 0.000002 0.000001 -0.000001 0.000001 5.799005 23.669005 -36.262338 -1.263002 -5.892321 -78.778603 0.000005 -0.000006 -0.000000 0.000001 -0.000001 0.000003 -2.572671 16.992131 -1.528423 -8.745412 -2.281516 -87.901844 -0.000006 0.000002 0.000014 -0.000005 -0.000002 0.000006 3.430295 7.599373 -2.700435 -7.632084 -1.594934 -80.330237 -0.000002 0.000000 0.000002 -0.000003 0.000001 0.000001 0.327208 5.953916 14.374379 7.423548 21.661945 56.721466 -3.471281 70.319127 -1.802002 16.854101 33.420443 -16.997455 3.737502 8.075490 6.398320 38.889301 -46.643546 23.922044 0.000016 -0.000017 -0.000016 0.000000 -0.000001 -0.000001 8.403922 8.639933 41.777084 -7.077001 0.204993 84.721755 0.000003 0.000003 -0.000002 -0.000002 0.000002 -0.000001 -4.764848 0.924200 47.019675 -6.377672 1.732585 74.730725 0.000005 -0.000005 0.000003 -0.000000 -0.000001 -0.000004 1.820340 -2.855091 68.260924 -2.498099 7.382642 80.555838 0.000002 -0.000001 0.000012 0.000000 -0.000000 -0.000005 9.466144 -10.774286 51.349174 -1.941845 12.193533 81.752419 0.000008 -0.000008 0.000006 0.000001 -0.000002 0.000004 -84.836639 5.608129 -4.807250 54.032701 -0.790264 -0.035576 8.836196 -2.169852 1.493702 -4.702136 -0.094192 1.622519 0.000001 0.000000 -0.000000 11.356538 -5.732808 14.956033 22.334071 -1.826639 -9.994114 37.640073 6.275051 -10.630996 -0.012372 0.156358 4.319373 -0.000000 0.000001 0.000000 
0.763387 81.416176 84.561729 17.635210 2.596133 0.082930 6.032184 3.020586 -2.834710 11.961731 3.364327 -2.418061 11.961731 3.364328 -2.418062 1.508703 -0.731622 -1.740280 -29.135627 -15.137695 5.637751 0.000000 0.000000 -0.000000 3.549983 -5.715693 -13.114025 7.189945 -29.855795 -52.539516 -45.992155 -90.813150 -45.469952 12.459921 -21.192235 18.978331 0.020309 -0.119785 8.442264 20.795312 24.918647 -11.283715 -0.000002 0.000005 -0.000003 -0.000001 0.000001 0.000000 9.115535 24.546638 -64.903681 0.511492 -9.881738 -94.583995 0.000004 -0.000008 0.000005 -0.000001 0.000002 0.000001 11.376188 15.933395 -63.301128 -1.142359 -5.780098 -76.459173 -0.000002 -0.000005 -0.000005 -0.000000 0.000003 -0.000002 1.522072 14.967082 -24.952730 -8.579731 -2.360585 -86.415198 0.000000 0.000004 0.000007 0.000001 -0.000002 0.000004 2.207436 2.736487 -14.521103 -7.828093 -1.541378 -81.836315 0.000000 -0.000003 -0.000001 -0.000003 0.000003 0.000002 1.416314 1.727727 15.722865 15.052706 13.869496 52.970491 -7.476766 74.258479 -0.329119 20.498096 37.577990 -31.855357 0.948700 -1.376901 -4.672251 23.901813 -35.643503 7.290198 0.000014 -0.000014 -0.000016 0.000002 0.000000 0.000004 5.086672 0.744330 33.782075 -6.957057 0.258811 83.574557 0.000006 0.000004 -0.000001 -0.000000 -0.000002 0.000003 -2.649810 -2.064677 45.271354 -6.189371 1.790371 72.876964 0.000005 -0.000008 0.000003 -0.000000 0.000001 -0.000001 4.228436 -5.248715 65.471359 -2.331544 7.270026 78.414055 0.000004 -0.000004 0.000020 -0.000002 -0.000003 0.000002 7.397804 -16.809954 51.494227 -1.925660 12.176209 81.517433 0.000008 -0.000004 -0.000001 -0.000001 -0.000001 0.000007 -69.173492 3.727314 -5.197807 30.625496 -0.475978 0.690252 10.951199 3.846323 -10.354539 -5.057560 -0.105292 1.927470 -0.000001 -0.000000 0.000001 3.537086 -8.404584 12.822068 48.162133 -9.357550 -9.058312 40.202866 3.833217 -16.183368 -13.656308 -0.000001 -0.000003 -0.000001 -0.000000 0.000000 
-0.624833 78.883316 99.745316 16.668962 3.453696 -1.783628 6.777428 2.247543 -2.455096 13.457200 1.121495 -0.866566 13.457207 1.121493 -0.866566 -0.424472 -0.332990 -2.062975 -33.674813 -11.442802 6.520771 0.000001 -0.000000 -0.000000 1.679181 -8.925313 -18.192740 -10.141176 -48.355680 -51.640571 -3.390817 -95.869724 -2.668112 13.272358 -30.041576 27.883472 0.020313 -0.119784 8.442266 22.831647 27.231107 -13.704418 -0.000003 0.000003 -0.000005 -0.000000 0.000001 0.000000 9.238374 19.376751 -69.508622 0.535446 -9.826144 -93.684302 0.000004 -0.000006 -0.000003 -0.000000 0.000000 -0.000002 10.306966 9.522383 -78.291535 -1.047062 -5.684929 -74.563331 -0.000001 -0.000004 0.000000 0.000001 0.000000 0.000003 2.890695 10.533624 -43.358454 -8.349622 -2.461706 -84.381038 -0.000002 0.000002 0.000004 0.000001 0.000000 0.000008 -0.251320 -0.850228 -27.352594 -7.794793 -1.547333 -81.569862 -0.000000 0.000001 0.000000 0.000000 0.000002 -0.000003 2.440003 -2.343396 15.292408 25.897333 3.147079 47.333320 -29.141057 82.885534 19.003009 26.753079 39.825788 -47.583858 0.487005 -0.695562 -4.715028 18.843952 -25.621170 -0.384717 0.000018 -0.000014 -0.000019 -0.000002 0.000003 -0.000002 5.135104 2.242294 39.364439 -6.880001 0.296503 82.830633 0.000002 0.000002 -0.000004 -0.000000 0.000000 0.000002 -3.451039 -1.329618 53.698626 -6.014093 1.838080 71.167955 -0.000001 -0.000009 -0.000003 -0.000003 -0.000002 -0.000009 3.858514 -4.085211 70.253058 -2.344245 7.279056 78.582467 0.000006 0.000002 0.000012 -0.000004 -0.000002 -0.000003 9.673482 -10.637402 63.034115 -2.095641 12.355134 84.000050 0.000012 -0.000005 -0.000005 -0.000002 0.000001 0.000007 -62.049680 8.346234 -6.621389 33.333075 2.705186 1.936018 10.097866 9.721723 10.122795 -3.594860 -0.060310 1.580795 -0.000000 0.000000 -0.000000 1.176086 -11.982618 5.953328 80.208025 -5.946142 -5.768276 14.092153 -13.372987 13.788602 -22.527572 0.000014 -0.000016 0.000000 0.000000 -0.000001 
